grf_walk
version=1
nRows=22
nColumns=19
inDegrees=no
endheader
time	ground_force_r_vx	ground_force_r_vy	ground_force_r_vz	ground_force_r_px	ground_force_r_py	ground_force_r_pz	ground_torque_r_x	ground_torque_r_y	ground_torque_r_z	ground_force_l_vx	ground_force_l_vy	ground_force_l_vz	ground_force_l_px	ground_force_l_py	ground_force_l_pz	ground_torque_l_x	ground_torque_l_y	ground_torque_l_z
1.99993333	41.93862200	448.85816200	36.96307400	0.66586200	0.00108000	-0.58971100	12.70853628	-6.50253144	74.57512314	-17.73353400	232.65260700	17.54121200	1.02079500	0.00135900	-0.38099900	4.47321615	19.15112761	-45.34728365
2.00393320	54.91370200	440.61972000	33.62087300	0.65987300	0.00107400	-0.59097200	11.92249792	-11.35102810	75.85305552	-0.35864500	250.99693600	8.72016000	0.97287200	0.00129900	-0.37720600	5.79246877	7.15713183	-36.90806277
2.00793307	66.05862400	429.93775400	29.67269000	0.65208300	0.00106400	-0.59410700	10.28696803	-13.06613708	77.36597159	-0.38336100	272.98281600	0.51580100	0.95604600	0.00126700	-0.36912300	8.52639543	-10.30402751	-35.57476296
2.01193293	68.04861600	418.65502900	33.96534200	0.65324800	0.00106400	-0.59438000	9.90272897	-13.15684336	74.84681589	-19.32154600	287.92688000	-6.17401400	0.96881400	0.00128000	-0.36807700	9.30328112	-18.52385046	-41.21234076
2.01593280	55.24102000	401.25815600	37.50599000	0.65241100	0.00106800	-0.59199100	10.44630653	-6.90000944	72.06160880	-46.02853000	291.54813600	0.54569200	0.98382200	0.00130700	-0.37411700	7.65383698	-12.98208547	-46.10355231
2.01993267	45.63969400	379.59158500	41.05427700	0.65752000	0.00107900	-0.58750900	11.58136879	-3.69603314	66.22551960	-61.45135900	301.28019100	10.63217400	0.99829700	0.00133200	-0.37937900	6.30437620	4.35530518	-51.98123292
2.02393253	47.02290100	362.79816500	35.74373400	0.65405900	0.00107600	-0.58804400	10.87627772	-5.64972365	64.55552327	-64.82545400	316.51773200	21.49093800	1.01372800	0.00134700	-0.37830000	6.94745397	20.37661924	-59.47351758
2.02793240	53.43983100	348.13643400	26.30949800	0.64873700	0.00106700	-0.59158800	9.20548640	-8.96877848	63.80709069	-55.54265800	338.82515400	9.62450600	1.00222600	0.00132900	-0.37493400	8.58183244	17.53376679	-59.76694051
2.03193227	62.75472800	335.61761200	20.22836800	0.63995900	0.00106100	-0.59191900	8.76448156	-10.42474274	64.46172042	-47.78265200	358.39236000	-6.67091600	0.97447500	0.00129400	-0.37249800	9.96907938	1.21688394	-53.29249243
2.03593213	63.22313300	316.70028000	22.09326700	0.63975300	0.00106100	-0.59223500	8.16911675	-7.91433199	60.88864973	-41.08925200	377.04729100	-26.32522200	0.96008400	0.00127500	-0.37101400	11.06503254	-15.30761320	-50.66084312
2.03993200	52.09468900	298.08624100	26.55162200	0.64115000	0.00105900	-0.59349000	7.31159092	-1.68962127	56.88209214	-44.46540700	394.13995900	-30.41758000	0.96809300	0.00128600	-0.37222900	11.09133498	-19.25426329	-56.11896393
2.04393187	41.57577700	280.07757400	28.56748300	0.64096600	0.00107000	-0.58766600	8.50036538	-1.29688677	53.49618739	-58.06851200	413.94556400	-20.16229100	0.97963400	0.00129600	-0.37023000	12.46266921	-7.37793436	-63.70053128
2.04793173	41.73952100	260.22734800	20.82099900	0.64269900	0.00107100	-0.58745000	7.95681070	-5.53733996	49.26318628	-73.94244800	418.17707300	-5.81172100	0.98715800	0.00131100	-0.37439100	10.83417761	7.45151538	-67.48086583
2.05193160	44.34535800	239.15451700	11.24516700	0.63560500	0.00107300	-0.58422100	8.08697672	-8.79809634	46.97884788	-82.64557800	422.73902100	-2.14226200	0.98329700	0.00131300	-0.37815800	9.35494997	11.98751713	-66.57973701
2.05593147	45.57361300	225.71875800	6.38638200	0.62617300	0.00105900	-0.58882500	6.59347031	-7.71959950	46.46820375	-78.53278300	429.46389700	-6.09872500	0.97835100	0.00129900	-0.37315500	11.65639879	8.70479164	-65.51796577
2.05993133	40.08937600	209.85078900	9.31394300	0.63864500	0.00106300	-0.59079000	5.71500583	-2.69249377	40.57575013	-62.22236700	444.15327400	-20.11365600	0.97402400	0.00129000	-0.37071000	13.15518310	-4.53825025	-65.85206626
2.06393120	33.07977400	193.07039200	13.92160500	0.64441300	0.00105700	-0.59587500	4.27301035	3.31894801	36.20598045	-51.09615900	455.47964200	-33.98093700	0.95639600	0.00127200	-0.37178000	13.01735419	-18.10074567	-59.51846921
2.06793107	30.80262800	172.31582300	13.19579300	0.62908300	0.00106300	-0.58759600	5.24004904	2.68457306	34.95500293	-48.20248300	460.37061900	-37.02482400	0.95134900	0.00126600	-0.37127400	13.38766140	-16.33675567	-57.82992214
2.07193093	31.57586600	153.99331900	6.81986800	0.62098600	0.00106300	-0.58486900	5.10530175	-1.81649225	32.49371937	-55.38166200	467.06682500	-31.06310700	0.95091800	0.00126900	-0.37356700	12.49900680	-5.12781303	-58.45355292
2.07593080	33.41533100	139.03093500	1.35346200	0.62874400	0.00105700	-0.59058600	3.81734234	-6.28236539	28.26763868	-70.03524000	471.61492600	-22.35826400	0.96178400	0.00128200	-0.37384500	12.47997075	4.10675006	-64.13665924
2.07993067	29.30455500	122.85542200	1.99275100	0.64441300	0.00106600	-0.59099800	3.32306387	-6.43061795	23.05547685	-75.38061900	475.87768700	-20.06257900	0.96086200	0.00127900	-0.37310900	12.93844663	8.44743823	-64.27184275
2.08393053	21.53390200	102.71903300	7.36935800	0.64476400	0.00107200	-0.58729200	3.15658061	-1.50290270	19.23201667	-68.97261800	476.50556400	-26.47026800	0.95634000	0.00127600	-0.37435900	12.36459586	3.80704683	-62.20684723
